<!-- Copyright 2020-2021 Rafał Jopek ( rafaljopek at hotmail com ) -->
<svg viewBox="0 0 43 48" fill="none" xmlns="http://www.w3.org/2000/svg" version="1.1" width="256" height="256" >
   <path d="M42.7056 14.112C42.7053 13.3049 42.5327 12.5917 42.1836 11.9796C41.8407 11.3778 41.3272 10.8733 40.6385 10.4744C34.9529 7.19607 29.2618 3.92775 23.578 0.646073C22.0457 -0.238556 20.56 -0.206306 19.0391 0.691022C16.776 2.02565 5.4458 8.517 2.06954 10.4726C0.679096 11.2775 0.0025065 12.5094 0.0021723 14.1105C0 20.7035 0.0021723 27.2962 0 33.8893C0.000334201 34.6787 0.165596 35.378 0.499296 35.9809C0.842352 36.601 1.36304 37.1194 2.0677 37.5273C5.44413 39.4829 16.7759 45.9737 19.0384 47.3087C20.56 48.2065 22.0457 48.2386 23.5785 47.3536C29.2624 44.0718 34.9539 40.8036 40.6403 37.5253C41.345 37.1175 41.8656 36.5989 42.2087 35.9793C42.5419 35.3764 42.7075 34.677 42.7078 33.8875C42.7078 33.8875 42.7078 20.7051 42.7056 14.112" fill="#5a5a5a"/>
   <path d="M21.42 23.9355L0.5 35.9808C0.843057 36.6009 1.36374 37.1193 2.0684 37.5272C5.44483 39.4827 16.7766 45.9736 19.0391 47.3085C20.5607 48.2064 22.0464 48.2384 23.5792 47.3535C29.2631 44.0716 34.9546 40.8035 40.641 37.5251C41.3457 37.1174 41.8663 36.5987 42.2094 35.9791L21.42 23.9355" fill="#ffc800"/>
   <path d="M15.2227 27.5035C16.44 29.6287 18.7284 31.062 21.3536 31.062C23.9949 31.062 26.2964 29.6104 27.5075 27.4625L21.4189 23.9355L15.2227 27.5035" fill="#ffc800"/>
   <path d="M42.7044 14.1119C42.704 13.3048 42.5314 12.5916 42.1824 11.9795L21.418 23.9355L42.2074 35.9791C42.5406 35.3762 42.7062 34.6769 42.7065 33.8873C42.7065 33.8873 42.7065 20.705 42.7044 14.1119" fill="#ffc800"/>
   <path d="M27.5085 27.4627C26.2973 29.6106 23.9959 31.0622 21.3545 31.0622C18.7294 31.0622 16.4409 29.6288 15.2236 27.5036C14.6121 26.4372 14.2909 25.2291 14.2922 23.9999C14.2922 20.0996 17.4542 16.9377 21.3545 16.9377C23.9628 16.9377 26.2392 18.3532 27.4625 20.4567L33.6354 16.9021C31.1818 12.6668 26.6011 9.81738 21.3545 9.81738C13.5215 9.81738 7.17188 16.1672 7.17188 23.9999C7.17188 26.5695 7.85548 28.9793 9.05025 31.0578C11.4976 35.3155 16.0914 38.1825 21.3545 38.1825C26.6274 38.1825 31.2283 35.304 33.6721 31.0338L27.5085 27.4627Z" fill="#fff9e5"/>
   <svg height="60" width="200">
      <text x="16.5" y="25.25" font-size="8" fill="#5a5a5a" transform="rotate(30 20,40)">XWin</text>
   </svg>
</svg>
